<?xml version="1.0" encoding="utf-8"?>

<svg width="180px" height="180px" viewBox="0 0 180 180" version="1.1" xmlns="http://www.w3.org/2000/svg" xmlns:xlink="http://www.w3.org/1999/xlink">
    <defs>
        <filter x="-9.4%" y="-25.1%" width="119.8%" height="150.3%" filterUnits="objectBoundingBox" id="filter-1">
            <feOffset dx="0" dy="5" in="SourceAlpha" result="shadowOffsetOuter1"></feOffset>
            <feGaussianBlur stdDeviation="20" in="shadowOffsetOuter1" result="shadowBlurOuter1"></feGaussianBlur>
            <feColorMatrix values="0 0 0 0 0   0 0 0 0 0   0 0 0 0 0  0 0 0 0.161203578 0" type="matrix" in="shadowBlurOuter1" result="shadowMatrixOuter1"></feColorMatrix>
            <feMerge>
                <feMergeNode in="shadowMatrixOuter1"></feMergeNode>
                <feMergeNode in="SourceGraphic"></feMergeNode>
            </feMerge>
        </filter>
        <linearGradient x1="89.1083323%" y1="33.2289639%" x2="-17.1791882%" y2="100%" id="linearGradient-2">
            <stop stop-color="#E94A5C" offset="0%"></stop>
            <stop stop-color="#FF7F00" offset="100%"></stop>
        </linearGradient>
    </defs>
    <g id="Page-1" stroke="none" stroke-width="1" fill="none" fill-rule="evenodd">
        <g id="1920х1080" transform="translate(-516.000000, -746.000000)">
            <g id="Group-22" filter="url(#filter-1)" transform="translate(500.000000, 681.000000)">
                <g id="Group-10">
                    <g id="Reg-01" transform="translate(56.000000, 100.000000)">
                        <path d="M25,25 L55,25 L55,8.33333333 C55,4.64583333 52.0208333,1.66666667 48.3333333,1.66666667 L43.3333333,1.66666667 L43.3333333,5 C43.3333333,6.83333333 41.8333333,8.33333333 40,8.33333333 L16.6666667,8.33333333 C14.8333333,8.33333333 13.3333333,6.83333333 13.3333333,5 L13.3333333,1.66666667 L8.33333333,1.66666667 C4.64583333,1.66666667 1.66666667,4.64583333 1.66666667,8.33333333 L1.66666667,91.6666667 C1.66666667,95.3541667 4.64583333,98.3333333 8.33333333,98.3333333 L48.3333333,98.3333333 C52.0208333,98.3333333 55,95.3541667 55,91.6666667 L55,48.3333333 L25,48.3333333 L25,25 Z M28.3333333,86.6666667 C30.1666667,86.6666667 31.6666667,88.1666667 31.6666667,90 C31.6666667,91.8333333 30.1666667,93.3333333 28.3333333,93.3333333 C26.5,93.3333333 25,91.8333333 25,90 C25,88.1666667 26.5,86.6666667 28.3333333,86.6666667 Z" id="Shape" fill="url(#linearGradient-2)" fill-rule="nonzero"></path>
                        <g id="Group" fill="#000000">
                            <polygon id="Path" points="6.66666667 80 50 80 50 83.3333333 6.66666667 83.3333333"></polygon>
                            <path d="M28.3333333,95 C25.5625,95 23.3333333,92.7708333 23.3333333,90 C23.3333333,87.2291667 25.5625,85 28.3333333,85 C31.1041667,85 33.3333333,87.2291667 33.3333333,90 C33.3333333,92.7708333 31.1041667,95 28.3333333,95 Z M28.3333333,88.3333333 C27.4166667,88.3333333 26.6666667,89.0833333 26.6666667,90 C26.6666667,90.9166667 27.4166667,91.6666667 28.3333333,91.6666667 C29.25,91.6666667 30,90.9166667 30,90 C30,89.0833333 29.25,88.3333333 28.3333333,88.3333333 Z" id="Shape" fill-rule="nonzero"></path>
                            <path d="M53.3333333,91.6666667 C53.3333333,94.4375 51.1041667,96.6666667 48.3333333,96.6666667 L8.33333333,96.6666667 C5.5625,96.6666667 3.33333333,94.4375 3.33333333,91.6666667 L3.33333333,8.33333333 C3.33333333,5.5625 5.5625,3.33333333 8.33333333,3.33333333 L11.6666667,3.33333333 L11.6666667,5 C11.6666667,7.77083333 13.8958333,10 16.6666667,10 L40,10 C42.7708333,10 45,7.77083333 45,5 L45,3.33333333 L48.3333333,3.33333333 C51.1041667,3.33333333 53.3333333,5.5625 53.3333333,8.33333333 L53.3333333,20 L56.6666667,20 L56.6666667,8.33333333 C56.6666667,3.72916667 52.9375,0 48.3333333,0 L8.33333333,0 C3.72916667,0 0,3.72916667 0,8.33333333 L0,91.6666667 C0,96.2708333 3.72916667,100 8.33333333,100 L48.3333333,100 C52.9375,100 56.6666667,96.2708333 56.6666667,91.6666667 L56.6666667,53.3333333 L53.3333333,53.3333333 L53.3333333,91.6666667 Z M15,3.33333333 L41.6666667,3.33333333 L41.6666667,5 C41.6666667,5.91666667 40.9166667,6.66666667 40,6.66666667 L16.6666667,6.66666667 C15.75,6.66666667 15,5.91666667 15,5 L15,3.33333333 Z" id="Shape" fill-rule="nonzero"></path>
                            <path d="M23.3333333,23.3333333 L23.3333333,50 L100,50 L100,23.3333333 L23.3333333,23.3333333 Z M96.6666667,46.6666667 L26.6666667,46.6666667 L26.6666667,26.6666667 L96.6666667,26.6666667 L96.6666667,46.6666667 Z" id="Shape" fill-rule="nonzero"></path>
                            <polygon id="Path" points="31.7291667 41.4375 35 39.5416667 35 43.3333333 38.3333333 43.3333333 38.3333333 39.5625 41.6041667 41.4583333 43.2708333 38.5625 40 36.6666667 43.2708333 34.7708333 41.6041667 31.875 38.3333333 33.7708333 38.3333333 30 35 30 35 33.7708333 31.7291667 31.875 30.0625 34.7708333 33.3333333 36.6666667 30.0625 38.5625"></polygon>
                            <polygon id="Path" points="48.3958333 41.4375 51.6666667 39.5416667 51.6666667 43.3333333 55 43.3333333 55 39.5625 58.2708333 41.4583333 59.9375 38.5625 56.6666667 36.6666667 59.9375 34.7708333 58.2708333 31.875 55 33.7708333 55 30 51.6666667 30 51.6666667 33.7708333 48.3958333 31.875 46.7291667 34.7708333 50 36.6666667 46.7291667 38.5625"></polygon>
                            <polygon id="Path" points="65.0625 41.4375 68.3333333 39.5416667 68.3333333 43.3333333 71.6666667 43.3333333 71.6666667 39.5625 74.9375 41.4583333 76.6041667 38.5625 73.3333333 36.6666667 76.6041667 34.7708333 74.9375 31.875 71.6666667 33.7708333 71.6666667 30 68.3333333 30 68.3333333 33.7708333 65.0625 31.875 63.3958333 34.7708333 66.6666667 36.6666667 63.3958333 38.5625"></polygon>
                            <polygon id="Path" points="81.7291667 41.4375 85 39.5416667 85 43.3333333 88.3333333 43.3333333 88.3333333 39.5625 91.6041667 41.4583333 93.2708333 38.5625 90 36.6666667 93.2708333 34.7708333 91.6041667 31.875 88.3333333 33.7708333 88.3333333 30 85 30 85 33.7708333 81.7291667 31.875 80.0625 34.7708333 83.3333333 36.6666667 80.0625 38.5625"></polygon>
                        </g>
                    </g>
                </g>
            </g>
        </g>
    </g>
</svg>