<svg xmlns="http://www.w3.org/2000/svg" xmlns:xlink="http://www.w3.org/1999/xlink" width="500" zoomAndPan="magnify" viewBox="0 0 375 374.999991" height="500" preserveAspectRatio="xMidYMid meet" version="1.0"><path stroke-linecap="butt" transform="matrix(0.980649, 0, 0, 0.980649, 0.0000045, 0)" fill-opacity="1" fill="#00d300" fill-rule="nonzero" stroke-linejoin="miter" d="M 191.223902 381.945912 C 85.888632 381.945912 0.501895 296.555193 0.501895 191.223906 C 0.501895 85.888636 85.888632 0.5019 191.223902 0.5019 C 296.555188 0.5019 381.945908 85.888636 381.945908 191.223906 C 381.945908 296.555193 296.555188 381.945912 191.223902 381.945912 Z M 191.223902 381.945912 " stroke="#3fb24f" stroke-width="1" stroke-opacity="1" stroke-miterlimit="10"/><path fill="#ffffff" d="M 137.613281 280.800781 L 78.382812 203.875 C 73.136719 197.0625 74.410156 187.289062 81.222656 182.042969 L 87.632812 177.105469 C 94.445312 171.859375 104.21875 173.132812 109.464844 179.945312 L 138.714844 217.9375 C 144.808594 225.851562 156.675781 226.058594 163.042969 218.363281 L 266.101562 93.816406 C 271.582031 87.195312 281.394531 86.265625 288.019531 91.746094 L 294.253906 96.90625 C 300.875 102.386719 301.804688 112.199219 296.324219 118.824219 L 161.941406 281.226562 C 155.574219 288.925781 143.707031 288.714844 137.613281 280.800781 Z M 137.613281 280.800781 " fill-opacity="1" fill-rule="nonzero"/></svg>