<svg xmlns="http://www.w3.org/2000/svg" xmlns:xlink="http://www.w3.org/1999/xlink" width="500" zoomAndPan="magnify" viewBox="0 0 375 374.999991" height="500" preserveAspectRatio="xMidYMid meet" version="1.0"><path fill="#f84442" d="M 375.003906 187.496094 C 375.003906 190.566406 374.929688 193.632812 374.78125 196.695312 C 374.628906 199.761719 374.402344 202.820312 374.101562 205.875 C 373.800781 208.929688 373.425781 211.972656 372.976562 215.007812 C 372.527344 218.042969 372 221.066406 371.402344 224.074219 C 370.804688 227.085938 370.132812 230.078125 369.386719 233.054688 C 368.640625 236.03125 367.824219 238.988281 366.933594 241.925781 C 366.042969 244.859375 365.078125 247.773438 364.046875 250.664062 C 363.011719 253.550781 361.90625 256.414062 360.734375 259.25 C 359.558594 262.085938 358.316406 264.890625 357.003906 267.664062 C 355.691406 270.4375 354.3125 273.175781 352.867188 275.882812 C 351.417969 278.589844 349.90625 281.257812 348.328125 283.890625 C 346.753906 286.523438 345.109375 289.113281 343.40625 291.664062 C 341.703125 294.21875 339.933594 296.726562 338.105469 299.191406 C 336.277344 301.65625 334.390625 304.074219 332.445312 306.445312 C 330.5 308.816406 328.496094 311.140625 326.433594 313.414062 C 324.375 315.6875 322.257812 317.910156 320.089844 320.078125 C 317.917969 322.25 315.695312 324.363281 313.421875 326.425781 C 311.148438 328.484375 308.828125 330.488281 306.453125 332.4375 C 304.082031 334.382812 301.664062 336.269531 299.199219 338.097656 C 296.734375 339.925781 294.226562 341.691406 291.675781 343.398438 C 289.125 345.101562 286.53125 346.742188 283.898438 348.320312 C 281.265625 349.898438 278.597656 351.410156 275.890625 352.855469 C 273.1875 354.304688 270.445312 355.683594 267.671875 356.996094 C 264.898438 358.308594 262.09375 359.550781 259.257812 360.722656 C 256.421875 361.898438 253.5625 363.003906 250.671875 364.035156 C 247.78125 365.070312 244.871094 366.03125 241.933594 366.921875 C 238.996094 367.8125 236.039062 368.632812 233.0625 369.378906 C 230.085938 370.125 227.09375 370.796875 224.085938 371.394531 C 221.074219 371.992188 218.050781 372.515625 215.015625 372.96875 C 211.980469 373.417969 208.9375 373.792969 205.882812 374.09375 C 202.828125 374.394531 199.769531 374.621094 196.707031 374.769531 C 193.640625 374.921875 190.574219 374.996094 187.503906 374.996094 C 184.4375 374.996094 181.371094 374.921875 178.304688 374.769531 C 175.238281 374.621094 172.179688 374.394531 169.125 374.09375 C 166.074219 373.792969 163.027344 373.417969 159.992188 372.96875 C 156.957031 372.515625 153.933594 371.992188 150.925781 371.394531 C 147.917969 370.796875 144.921875 370.125 141.945312 369.378906 C 138.96875 368.632812 136.011719 367.8125 133.078125 366.921875 C 130.140625 366.03125 127.226562 365.070312 124.339844 364.035156 C 121.449219 363.003906 118.585938 361.898438 115.75 360.722656 C 112.917969 359.550781 110.113281 358.308594 107.339844 356.996094 C 104.5625 355.683594 101.824219 354.304688 99.117188 352.855469 C 96.410156 351.410156 93.742188 349.898438 91.109375 348.320312 C 88.480469 346.742188 85.886719 345.101562 83.335938 343.398438 C 80.785156 341.691406 78.277344 339.925781 75.8125 338.097656 C 73.347656 336.269531 70.929688 334.382812 68.554688 332.4375 C 66.183594 330.488281 63.859375 328.484375 61.585938 326.425781 C 59.3125 324.363281 57.09375 322.25 54.921875 320.078125 C 52.753906 317.910156 50.636719 315.6875 48.578125 313.414062 C 46.515625 311.140625 44.511719 308.816406 42.566406 306.445312 C 40.617188 304.074219 38.730469 301.65625 36.902344 299.191406 C 35.074219 296.726562 33.308594 294.21875 31.605469 291.664062 C 29.898438 289.113281 28.257812 286.523438 26.679688 283.890625 C 25.101562 281.257812 23.589844 278.589844 22.144531 275.882812 C 20.699219 273.175781 19.320312 270.4375 18.007812 267.664062 C 16.695312 264.890625 15.453125 262.085938 14.277344 259.25 C 13.101562 256.414062 12 253.550781 10.964844 250.664062 C 9.929688 247.773438 8.96875 244.859375 8.078125 241.925781 C 7.1875 238.988281 6.371094 236.03125 5.625 233.054688 C 4.878906 230.078125 4.207031 227.085938 3.605469 224.074219 C 3.007812 221.066406 2.484375 218.042969 2.035156 215.007812 C 1.582031 211.972656 1.207031 208.929688 0.90625 205.875 C 0.605469 202.820312 0.382812 199.761719 0.230469 196.695312 C 0.078125 193.632812 0.00390625 190.566406 0.00390625 187.496094 C 0.00390625 184.429688 0.078125 181.359375 0.230469 178.296875 C 0.382812 175.230469 0.605469 172.171875 0.90625 169.117188 C 1.207031 166.0625 1.582031 163.019531 2.035156 159.984375 C 2.484375 156.949219 3.007812 153.925781 3.609375 150.917969 C 4.207031 147.90625 4.878906 144.914062 5.625 141.9375 C 6.371094 138.960938 7.1875 136.003906 8.078125 133.066406 C 8.96875 130.132812 9.929688 127.21875 10.964844 124.328125 C 12 121.441406 13.101562 118.578125 14.277344 115.742188 C 15.453125 112.90625 16.695312 110.101562 18.007812 107.328125 C 19.320312 104.554688 20.699219 101.816406 22.144531 99.109375 C 23.589844 96.402344 25.101562 93.734375 26.679688 91.101562 C 28.257812 88.46875 29.898438 85.878906 31.605469 83.328125 C 33.308594 80.773438 35.074219 78.265625 36.902344 75.800781 C 38.730469 73.335938 40.617188 70.917969 42.566406 68.546875 C 44.511719 66.175781 46.515625 63.851562 48.578125 61.578125 C 50.636719 59.304688 52.753906 57.082031 54.921875 54.914062 C 57.09375 52.742188 59.3125 50.628906 61.585938 48.566406 C 63.859375 46.507812 66.183594 44.503906 68.554688 42.554688 C 70.929688 40.609375 73.347656 38.722656 75.8125 36.894531 C 78.277344 35.066406 80.785156 33.300781 83.335938 31.59375 C 85.886719 29.890625 88.480469 28.25 91.109375 26.671875 C 93.742188 25.09375 96.410156 23.582031 99.117188 22.136719 C 101.824219 20.6875 104.5625 19.308594 107.339844 17.996094 C 110.113281 16.6875 112.917969 15.441406 115.75 14.269531 C 118.585938 13.09375 121.449219 11.988281 124.339844 10.957031 C 127.226562 9.921875 130.140625 8.960938 133.078125 8.070312 C 136.011719 7.179688 138.96875 6.359375 141.945312 5.613281 C 144.921875 4.871094 147.917969 4.199219 150.925781 3.597656 C 153.933594 3 156.957031 2.476562 159.992188 2.023438 C 163.027344 1.574219 166.074219 1.199219 169.125 0.898438 C 172.179688 0.597656 175.238281 0.371094 178.304688 0.222656 C 181.371094 0.0703125 184.4375 -0.00390625 187.503906 -0.00390625 C 190.574219 -0.00390625 193.640625 0.0703125 196.707031 0.222656 C 199.769531 0.371094 202.828125 0.597656 205.882812 0.898438 C 208.9375 1.199219 211.980469 1.574219 215.015625 2.023438 C 218.050781 2.476562 221.074219 3 224.085938 3.597656 C 227.09375 4.199219 230.085938 4.871094 233.0625 5.613281 C 236.039062 6.359375 238.996094 7.179688 241.933594 8.070312 C 244.871094 8.960938 247.78125 9.921875 250.671875 10.957031 C 253.5625 11.988281 256.421875 13.09375 259.257812 14.269531 C 262.09375 15.441406 264.898438 16.6875 267.671875 17.996094 C 270.445312 19.308594 273.1875 20.6875 275.890625 22.136719 C 278.597656 23.582031 281.265625 25.09375 283.898438 26.671875 C 286.53125 28.25 289.125 29.890625 291.675781 31.59375 C 294.226562 33.300781 296.734375 35.066406 299.199219 36.894531 C 301.664062 38.722656 304.082031 40.609375 306.453125 42.554688 C 308.828125 44.503906 311.148438 46.507812 313.421875 48.566406 C 315.695312 50.628906 317.917969 52.742188 320.089844 54.914062 C 322.257812 57.082031 324.371094 59.304688 326.433594 61.578125 C 328.496094 63.851562 330.5 66.175781 332.445312 68.546875 C 334.390625 70.917969 336.277344 73.335938 338.105469 75.800781 C 339.933594 78.265625 341.703125 80.773438 343.40625 83.328125 C 345.109375 85.878906 346.753906 88.46875 348.328125 91.101562 C 349.90625 93.734375 351.417969 96.402344 352.867188 99.109375 C 354.3125 101.816406 355.691406 104.554688 357.003906 107.328125 C 358.316406 110.101562 359.558594 112.90625 360.734375 115.742188 C 361.90625 118.578125 363.011719 121.441406 364.046875 124.328125 C 365.078125 127.21875 366.042969 130.132812 366.933594 133.066406 C 367.824219 136.003906 368.640625 138.960938 369.386719 141.9375 C 370.132812 144.914062 370.804688 147.90625 371.402344 150.917969 C 372 153.925781 372.527344 156.949219 372.976562 159.984375 C 373.425781 163.019531 373.800781 166.0625 374.101562 169.117188 C 374.402344 172.171875 374.628906 175.230469 374.78125 178.296875 C 374.929688 181.359375 375.003906 184.429688 375.003906 187.496094 Z M 375.003906 187.496094 " fill-opacity="1" fill-rule="nonzero"/><path fill="#ffffff" d="M 187.507812 152.394531 L 125.714844 90.601562 C 116.027344 80.917969 100.300781 80.917969 90.613281 90.601562 C 80.925781 100.289062 80.925781 116.019531 90.613281 125.710938 L 152.398438 187.5 L 90.613281 249.289062 C 80.925781 258.976562 80.925781 274.707031 90.613281 284.398438 C 100.300781 294.085938 116.027344 294.085938 125.714844 284.398438 L 187.507812 222.605469 L 249.296875 284.398438 C 258.984375 294.085938 274.714844 294.085938 284.402344 284.398438 C 294.089844 274.707031 294.089844 258.976562 284.402344 249.289062 L 222.613281 187.5 L 284.402344 125.710938 C 294.089844 116.019531 294.089844 100.289062 284.402344 90.601562 C 274.714844 80.917969 258.984375 80.917969 249.296875 90.601562 Z M 187.507812 152.394531 " fill-opacity="1" fill-rule="evenodd"/></svg>