<svg xmlns="http://www.w3.org/2000/svg" xmlns:xlink="http://www.w3.org/1999/xlink" role="img">
    <defs>
        <linearGradient id="paint0_linear" x1="107" y1="0" x2="0" y2="0" gradientUnits="userSpaceOnUse">
        <stop stop-color="#003A50"></stop>
        <stop offset="0.778452" stop-color="#CC4D72"></stop>
        <stop offset="1" stop-color="#CC4D72"></stop>
        </linearGradient>
    </defs>
    <symbol id="vamo-logo" viewBox="0 0 107 64">
      <path d="M31.8998 0C31.3206 0 30.7417 0.0160959 30.1601 0.0482876C21.6693 0.51547 13.8579 4.27828 8.16316 10.6414C2.46441 17.0093 -0.417342 25.2073 0.0488718 33.7245C0.980092 50.7644 15.0671 64 31.8375 64C32.4199 64 33.0064 63.9839 33.5945 63.9517C42.7317 63.4668 51.2346 59.0384 56.9233 51.8013C57.4028 51.1921 57.2986 50.308 56.6916 49.8268C56.0834 49.3451 55.2032 49.4493 54.723 50.059C49.5339 56.6603 41.7792 60.6995 33.4441 61.1414C17.4492 62.0258 3.72669 49.6525 2.84736 33.5712C2.42298 25.8049 5.05131 18.3296 10.248 12.5214C15.4432 6.716 22.5699 3.28396 30.3141 2.85742C39.673 2.34275 48.7543 6.44157 54.6063 13.8239C55.0882 14.432 55.9699 14.5326 56.5757 14.0489C57.1811 13.5648 57.2817 12.6803 56.7998 12.0719C50.7463 4.43522 41.5399 0.000402397 31.8998 0ZM83.6708 33.0211C83.6708 39.5125 88.8297 44.6733 95.3193 44.6733C101.808 44.6733 107 39.5125 107 33.0211C107 26.5296 101.808 21.3037 95.3193 21.3037C88.8297 21.3037 83.6708 26.5296 83.6708 33.0211ZM87.8889 33.0211C87.8889 28.9311 91.2312 25.5232 95.3193 25.5232C99.407 25.5232 102.782 28.9311 102.782 33.0211C102.782 37.111 99.407 40.4542 95.3193 40.4542C91.2312 40.4542 87.8889 37.111 87.8889 33.0211ZM75.919 21.3037C75.6269 21.3037 75.4644 21.4337 75.3671 21.628L68.2295 36.9489H68.1313L60.9933 21.628C60.8964 21.4337 60.7013 21.3037 60.4418 21.3037H59.9229C59.5657 21.3037 59.3706 21.531 59.338 21.7902L55.4776 43.6021C55.4124 44.0572 55.6719 44.349 56.0942 44.349H59.0142C59.3058 44.349 59.5657 44.0894 59.5983 43.8625L61.48 31.56H61.5774L67.3208 44.3164C67.4181 44.5111 67.5802 44.6733 67.8719 44.6733H68.4563C68.748 44.6733 68.9427 44.5111 69.0074 44.3164L74.6861 31.56H74.7834L76.6973 43.8625C76.7625 44.0894 77.0228 44.349 77.314 44.349H80.2665C80.6885 44.349 80.948 44.0572 80.8506 43.6021L77.0228 21.7902C76.9902 21.531 76.7951 21.3037 76.4379 21.3037H75.919ZM43.1493 21.3037C42.8576 21.3037 42.6951 21.4659 42.5978 21.6606L32.5072 43.5043C32.3125 43.9272 32.572 44.349 33.0587 44.349H35.8817C36.4002 44.349 36.6927 44.0246 36.8226 43.6995L38.4127 40.1938H48.1139L49.704 43.6995C49.9305 44.1542 50.1578 44.349 50.6453 44.349H53.4679C53.9542 44.349 54.2149 43.9272 54.0194 43.5043L44.0258 21.6606C43.9284 21.4659 43.7985 21.3037 43.4739 21.3037H43.1493ZM43.1815 29.4506H43.2796L46.5242 36.5907H40.002L43.1815 29.4506ZM30.2699 21.628C29.9774 21.628 29.7827 21.8224 29.718 21.9853L23.4887 35.9421H23.2614L17.0313 21.9853C16.9661 21.8224 16.7718 21.628 16.4802 21.628H13.1704C12.6833 21.628 12.4242 22.0505 12.6185 22.4722L22.6443 44.3164C22.7417 44.5111 22.9038 44.6733 23.1962 44.6733H23.5208C23.8125 44.6733 23.975 44.5111 24.0727 44.3164L34.1303 22.4722C34.3254 22.0505 34.0656 21.628 33.5796 21.628H30.2699Z" fill="url(#paint0_linear)"></path>
    </symbol>
</svg>