<?xml version="1.0" encoding="UTF-8"?>
<svg width="39px" height="33px" viewBox="0 0 39 33" version="1.1" xmlns="http://www.w3.org/2000/svg" xmlns:xlink="http://www.w3.org/1999/xlink">
    <title>Group 2 Copy 4</title>
    <g id="Page-1" stroke="none" stroke-width="1" fill="none" fill-rule="evenodd">
        <g id="Step3" transform="translate(-258.000000, -592.000000)" fill="#FF7F00" fill-rule="nonzero">
            <g id="Group-Copy-3" transform="translate(204.000000, 529.000000)">
                <g id="Group-2-Copy-4" transform="translate(54.000000, 63.000000)">
                    <g id="photograph" transform="translate(0.155215, 0.487805)">
                        <path d="M36.2376392,6.37798342 C35.2554751,5.42012835 34.0707831,4.9410666 32.6827376,4.9410666 L28.2831899,4.9410666 L27.2816948,2.33565249 C27.0328001,1.70989947 26.5780066,1.17017492 25.9164199,0.71654592 C25.2551085,0.263118239 24.5775617,0.0362366358 23.8835046,0.0362366358 L13.8272089,0.0362366358 C13.1332205,0.0362366358 12.4555362,0.263118239 11.7942247,0.71654592 C11.1329133,1.17017492 10.678051,1.70989947 10.429225,2.33565249 L9.42759237,4.9410666 L5.02804468,4.9410666 C3.63986159,4.9410666 2.45510075,5.42012835 1.47293662,6.37798342 C0.490978873,7.3359056 0,8.49172007 0,9.84569526 L0,27.0119962 C0,28.3660385 0.490978873,29.5219872 1.47293662,30.4796409 C2.45510075,31.4376973 3.63993039,31.9167591 5.02804468,31.9167591 L32.682256,31.9167591 C34.0703015,31.9167591 35.2549248,31.4376973 36.2371577,30.4796409 C37.2190466,29.5219872 37.7101632,28.3660385 37.7101632,27.0119962 L37.7101632,9.84569526 C37.7101632,8.49172007 37.2193218,7.3359056 36.2376392,6.37798342 Z M25.0714987,24.4928119 C23.3496674,26.172447 21.2777462,27.0124659 18.8551847,27.0124659 C16.4326233,27.0124659 14.3608397,26.172447 12.6388708,24.4928119 C10.9169018,22.8134451 10.0560894,20.7919106 10.0560894,18.429349 C10.0560894,16.0660493 10.917177,14.0451858 12.6388708,12.3654835 C14.3606333,10.6857813 16.4326921,9.84609789 18.8551847,9.84609789 C21.2776774,9.84609789 23.3496674,10.6859826 25.0714987,12.3654835 C26.7933989,14.0449845 27.6543489,16.0660493 27.6543489,18.429349 C27.6543489,20.7919106 26.7934676,22.8132438 25.0714987,24.4928119 Z" id="Shape"></path>
                        <path d="M18.8551847,12.9111804 C17.2969442,12.9111804 15.9646214,13.4508379 14.8581475,14.530287 C13.7516736,15.6096019 13.1984367,16.9090208 13.1984367,18.429349 C13.1984367,19.9490733 13.7516736,21.2486935 14.8581475,22.3280084 C15.9646214,23.407122 17.2968754,23.9467794 18.8551847,23.9467794 C20.4132189,23.9467794 21.7456793,23.407122 22.8521531,22.3280084 C23.958627,21.2486935 24.5119328,19.9491404 24.5119328,18.429349 C24.5119328,16.9090879 23.958627,15.609669 22.8521531,14.530287 C21.745748,13.450905 20.4132189,12.9111804 18.8551847,12.9111804 Z" id="Path"></path>
                    </g>
                </g>
            </g>
        </g>
    </g>
</svg>