<?xml version="1.0" encoding="utf-8"?>
<!-- Generator: Adobe Illustrator 25.0.1, SVG Export Plug-In . SVG Version: 6.00 Build 0)  -->
<svg version="1.1" id="Capa_1" xmlns="http://www.w3.org/2000/svg" xmlns:xlink="http://www.w3.org/1999/xlink" x="0px" y="0px"
	 viewBox="0 0 471 471" style="enable-background:new 0 0 471 471;" xml:space="preserve">
<style type="text/css">
	.st0{fill:#FFFFFF;}
</style>
<g>
	<g>
		<g>
			<path class="st0" d="M414.7,112.6h-49.2l-27.1-41c-10.2-15.4-28.2-24.6-46.6-24.6H179.2c-18.4,0-36.4,9.2-46.6,24.6l-27.1,41
				H56.3C25.1,112.6,0,137.7,0,169v198.7c0,31.2,25.1,56.3,56.3,56.3h358.4c31.2,0,56.3-25.1,56.3-56.3V169
				C471,137.7,446,112.6,414.7,112.6z M235.5,377.9c-70.1,0-127-56.8-127-127s56.8-126.5,127-126.5s127,56.8,127,127
				C362.5,321,305.7,377.9,235.5,377.9z M407.6,192c-0.5,0-1,0-2,0H385c-9.2-0.5-16.4-8.2-15.9-17.4c0.5-8.7,7.2-15.4,15.9-15.9
				h20.5c9.2-0.5,16.9,6.7,17.4,15.9C423.4,183.8,416.8,191.5,407.6,192z"/>
		</g>
	</g>
	<g>
		<g>
			<path class="st0" d="M235.5,180.7c-38.9,0-70.7,31.7-70.7,70.7s31.7,70.1,70.7,70.1s70.7-31.7,70.7-70.7
				C306.2,212,274.4,180.7,235.5,180.7z"/>
		</g>
	</g>
</g>
</svg>
